<mxfile host="app.diagrams.net" agent="Mozilla/5.0 (Windows NT 10.0; Win64; x64) AppleWebKit/537.36 (KHTML, like Gecko) Chrome/129.0.0.0 Safari/537.36" version="24.8.0" pages="3">
  <diagram name="Halaman-1" id="ftdxJJy2kv--KA1rjpnv">
    <mxGraphModel dx="763" dy="511" grid="1" gridSize="10" guides="1" tooltips="1" connect="1" arrows="1" fold="1" page="1" pageScale="1" pageWidth="827" pageHeight="1169" math="0" shadow="0">
      <root>
        <mxCell id="0" />
        <mxCell id="1" parent="0" />
        <mxCell id="HJNS3MHEEu8FEa74WUdX-22" value="" style="rounded=0;whiteSpace=wrap;html=1;fillColor=#dae8fc;strokeColor=#6c8ebf;gradientColor=#7ea6e0;" parent="1" vertex="1">
          <mxGeometry x="10" y="10" width="600" height="680" as="geometry" />
        </mxCell>
        <mxCell id="HJNS3MHEEu8FEa74WUdX-21" value="" style="rounded=0;whiteSpace=wrap;html=1;" parent="1" vertex="1">
          <mxGeometry x="20" y="20" width="580" height="660" as="geometry" />
        </mxCell>
        <mxCell id="HJNS3MHEEu8FEa74WUdX-2" style="rounded=0;orthogonalLoop=1;jettySize=auto;html=1;exitX=0.5;exitY=0.5;exitDx=0;exitDy=0;exitPerimeter=0;entryX=0;entryY=0.5;entryDx=0;entryDy=0;" parent="1" source="DxVFcLozTvVZ30CHYZOx-24" target="HJNS3MHEEu8FEa74WUdX-1" edge="1">
          <mxGeometry relative="1" as="geometry" />
        </mxCell>
        <mxCell id="DxVFcLozTvVZ30CHYZOx-24" value="&lt;b&gt;User&lt;/b&gt;" style="shape=umlActor;verticalLabelPosition=bottom;verticalAlign=top;html=1;outlineConnect=0;" parent="1" vertex="1">
          <mxGeometry x="40" y="343" width="30" height="60" as="geometry" />
        </mxCell>
        <mxCell id="DxVFcLozTvVZ30CHYZOx-25" value="Autentikasi Akun" style="ellipse;whiteSpace=wrap;html=1;" parent="1" vertex="1">
          <mxGeometry x="170" y="55" width="120" height="60" as="geometry" />
        </mxCell>
        <mxCell id="DxVFcLozTvVZ30CHYZOx-26" value="Register" style="ellipse;whiteSpace=wrap;html=1;" parent="1" vertex="1">
          <mxGeometry x="330" y="90" width="100" height="40" as="geometry" />
        </mxCell>
        <mxCell id="DxVFcLozTvVZ30CHYZOx-27" value="Login" style="ellipse;whiteSpace=wrap;html=1;" parent="1" vertex="1">
          <mxGeometry x="330" y="40" width="100" height="40" as="geometry" />
        </mxCell>
        <mxCell id="DxVFcLozTvVZ30CHYZOx-28" value="" style="endArrow=classic;html=1;rounded=0;exitX=1;exitY=0.5;exitDx=0;exitDy=0;entryX=0;entryY=0.5;entryDx=0;entryDy=0;" parent="1" source="DxVFcLozTvVZ30CHYZOx-25" target="DxVFcLozTvVZ30CHYZOx-27" edge="1">
          <mxGeometry width="50" height="50" relative="1" as="geometry">
            <mxPoint x="270" y="55" as="sourcePoint" />
            <mxPoint x="320" y="5" as="targetPoint" />
          </mxGeometry>
        </mxCell>
        <mxCell id="DxVFcLozTvVZ30CHYZOx-29" value="" style="endArrow=classic;html=1;rounded=0;exitX=1;exitY=0.5;exitDx=0;exitDy=0;entryX=0;entryY=0.5;entryDx=0;entryDy=0;" parent="1" source="DxVFcLozTvVZ30CHYZOx-25" target="DxVFcLozTvVZ30CHYZOx-26" edge="1">
          <mxGeometry width="50" height="50" relative="1" as="geometry">
            <mxPoint x="270" y="55" as="sourcePoint" />
            <mxPoint x="320" y="5" as="targetPoint" />
          </mxGeometry>
        </mxCell>
        <mxCell id="DxVFcLozTvVZ30CHYZOx-30" value="Transaksi" style="ellipse;whiteSpace=wrap;html=1;" parent="1" vertex="1">
          <mxGeometry x="170" y="343" width="120" height="60" as="geometry" />
        </mxCell>
        <mxCell id="DxVFcLozTvVZ30CHYZOx-31" value="Pembayaran" style="ellipse;whiteSpace=wrap;html=1;" parent="1" vertex="1">
          <mxGeometry x="330" y="430" width="100" height="50" as="geometry" />
        </mxCell>
        <mxCell id="DxVFcLozTvVZ30CHYZOx-32" value="Pemesanan" style="ellipse;whiteSpace=wrap;html=1;" parent="1" vertex="1">
          <mxGeometry x="330" y="270" width="100" height="50" as="geometry" />
        </mxCell>
        <mxCell id="DxVFcLozTvVZ30CHYZOx-33" value="" style="endArrow=classic;html=1;rounded=0;exitX=1;exitY=0.5;exitDx=0;exitDy=0;entryX=0;entryY=0.5;entryDx=0;entryDy=0;" parent="1" source="DxVFcLozTvVZ30CHYZOx-30" target="DxVFcLozTvVZ30CHYZOx-32" edge="1">
          <mxGeometry width="50" height="50" relative="1" as="geometry">
            <mxPoint x="290" y="376" as="sourcePoint" />
            <mxPoint x="330" y="341" as="targetPoint" />
          </mxGeometry>
        </mxCell>
        <mxCell id="DxVFcLozTvVZ30CHYZOx-34" value="" style="endArrow=classic;html=1;rounded=0;exitX=1;exitY=0.5;exitDx=0;exitDy=0;entryX=0;entryY=0.5;entryDx=0;entryDy=0;" parent="1" source="DxVFcLozTvVZ30CHYZOx-30" target="DxVFcLozTvVZ30CHYZOx-31" edge="1">
          <mxGeometry width="50" height="50" relative="1" as="geometry">
            <mxPoint x="290" y="376" as="sourcePoint" />
            <mxPoint x="320" y="301" as="targetPoint" />
          </mxGeometry>
        </mxCell>
        <mxCell id="DxVFcLozTvVZ30CHYZOx-35" value="Cek Status Pemesanan" style="ellipse;whiteSpace=wrap;html=1;" parent="1" vertex="1">
          <mxGeometry x="170" y="570" width="120" height="60" as="geometry" />
        </mxCell>
        <mxCell id="DxVFcLozTvVZ30CHYZOx-36" value="Melihat Data Diri Kurir" style="ellipse;whiteSpace=wrap;html=1;" parent="1" vertex="1">
          <mxGeometry x="330" y="610" width="130" height="50" as="geometry" />
        </mxCell>
        <mxCell id="DxVFcLozTvVZ30CHYZOx-38" value="Melihat Informasi Status Pemesanan" style="ellipse;whiteSpace=wrap;html=1;" parent="1" vertex="1">
          <mxGeometry x="330" y="540" width="130" height="50" as="geometry" />
        </mxCell>
        <mxCell id="DxVFcLozTvVZ30CHYZOx-39" value="" style="endArrow=classic;html=1;rounded=0;exitX=1;exitY=0.5;exitDx=0;exitDy=0;entryX=0;entryY=0.5;entryDx=0;entryDy=0;" parent="1" source="DxVFcLozTvVZ30CHYZOx-35" target="DxVFcLozTvVZ30CHYZOx-38" edge="1">
          <mxGeometry width="50" height="50" relative="1" as="geometry">
            <mxPoint x="260" y="570" as="sourcePoint" />
            <mxPoint x="310" y="520" as="targetPoint" />
          </mxGeometry>
        </mxCell>
        <mxCell id="DxVFcLozTvVZ30CHYZOx-40" value="" style="endArrow=classic;html=1;rounded=0;exitX=1;exitY=0.5;exitDx=0;exitDy=0;entryX=0;entryY=0.5;entryDx=0;entryDy=0;" parent="1" source="DxVFcLozTvVZ30CHYZOx-35" target="DxVFcLozTvVZ30CHYZOx-36" edge="1">
          <mxGeometry width="50" height="50" relative="1" as="geometry">
            <mxPoint x="260" y="570" as="sourcePoint" />
            <mxPoint x="310" y="520" as="targetPoint" />
          </mxGeometry>
        </mxCell>
        <mxCell id="DxVFcLozTvVZ30CHYZOx-42" value="" style="endArrow=classic;html=1;rounded=0;exitX=0.5;exitY=0.5;exitDx=0;exitDy=0;exitPerimeter=0;entryX=0;entryY=0.5;entryDx=0;entryDy=0;" parent="1" source="DxVFcLozTvVZ30CHYZOx-24" target="DxVFcLozTvVZ30CHYZOx-25" edge="1">
          <mxGeometry width="50" height="50" relative="1" as="geometry">
            <mxPoint x="60" y="452" as="sourcePoint" />
            <mxPoint x="110" y="402" as="targetPoint" />
          </mxGeometry>
        </mxCell>
        <mxCell id="DxVFcLozTvVZ30CHYZOx-43" value="" style="endArrow=classic;html=1;rounded=0;exitX=0.5;exitY=0.5;exitDx=0;exitDy=0;exitPerimeter=0;entryX=0;entryY=0.5;entryDx=0;entryDy=0;" parent="1" source="DxVFcLozTvVZ30CHYZOx-24" target="DxVFcLozTvVZ30CHYZOx-30" edge="1">
          <mxGeometry width="50" height="50" relative="1" as="geometry">
            <mxPoint x="70" y="462" as="sourcePoint" />
            <mxPoint x="120" y="412" as="targetPoint" />
          </mxGeometry>
        </mxCell>
        <mxCell id="DxVFcLozTvVZ30CHYZOx-44" value="" style="endArrow=classic;html=1;rounded=0;exitX=0.5;exitY=0.5;exitDx=0;exitDy=0;exitPerimeter=0;entryX=0;entryY=0.5;entryDx=0;entryDy=0;" parent="1" source="DxVFcLozTvVZ30CHYZOx-24" target="DxVFcLozTvVZ30CHYZOx-35" edge="1">
          <mxGeometry width="50" height="50" relative="1" as="geometry">
            <mxPoint x="80" y="472" as="sourcePoint" />
            <mxPoint x="130" y="422" as="targetPoint" />
          </mxGeometry>
        </mxCell>
        <mxCell id="DxVFcLozTvVZ30CHYZOx-45" value="&lt;b style=&quot;font-size: 18px;&quot;&gt;&lt;font style=&quot;font-size: 18px;&quot;&gt;Use Case User&lt;/font&gt;&lt;/b&gt;" style="text;html=1;align=center;verticalAlign=middle;whiteSpace=wrap;rounded=0;fontSize=18;" parent="1" vertex="1">
          <mxGeometry x="30" y="640" width="130" height="40" as="geometry" />
        </mxCell>
        <mxCell id="HJNS3MHEEu8FEa74WUdX-1" value="Kelola Informasi Pengguna" style="ellipse;whiteSpace=wrap;html=1;" parent="1" vertex="1">
          <mxGeometry x="170" y="165" width="120" height="60" as="geometry" />
        </mxCell>
        <mxCell id="HJNS3MHEEu8FEa74WUdX-5" value="Melihat Data Diri" style="ellipse;whiteSpace=wrap;html=1;" parent="1" vertex="1">
          <mxGeometry x="330" y="150" width="100" height="40" as="geometry" />
        </mxCell>
        <mxCell id="HJNS3MHEEu8FEa74WUdX-6" value="Mengedit Data Diri" style="ellipse;whiteSpace=wrap;html=1;" parent="1" vertex="1">
          <mxGeometry x="330" y="200" width="100" height="40" as="geometry" />
        </mxCell>
        <mxCell id="HJNS3MHEEu8FEa74WUdX-7" value="" style="endArrow=classic;html=1;rounded=0;exitX=1;exitY=0.5;exitDx=0;exitDy=0;entryX=0;entryY=0.5;entryDx=0;entryDy=0;" parent="1" source="HJNS3MHEEu8FEa74WUdX-1" target="HJNS3MHEEu8FEa74WUdX-5" edge="1">
          <mxGeometry width="50" height="50" relative="1" as="geometry">
            <mxPoint x="300" y="85" as="sourcePoint" />
            <mxPoint x="340" y="50" as="targetPoint" />
          </mxGeometry>
        </mxCell>
        <mxCell id="HJNS3MHEEu8FEa74WUdX-8" value="" style="endArrow=classic;html=1;rounded=0;exitX=1;exitY=0.5;exitDx=0;exitDy=0;entryX=0;entryY=0.5;entryDx=0;entryDy=0;" parent="1" source="HJNS3MHEEu8FEa74WUdX-1" target="HJNS3MHEEu8FEa74WUdX-6" edge="1">
          <mxGeometry width="50" height="50" relative="1" as="geometry">
            <mxPoint x="300" y="235" as="sourcePoint" />
            <mxPoint x="340" y="200" as="targetPoint" />
          </mxGeometry>
        </mxCell>
        <mxCell id="HJNS3MHEEu8FEa74WUdX-9" value="Menambah Menu Ke Keranjang" style="ellipse;whiteSpace=wrap;html=1;" parent="1" vertex="1">
          <mxGeometry x="470" y="210" width="110" height="50" as="geometry" />
        </mxCell>
        <mxCell id="HJNS3MHEEu8FEa74WUdX-10" value="Melihat Keranjang" style="ellipse;whiteSpace=wrap;html=1;" parent="1" vertex="1">
          <mxGeometry x="470" y="270" width="110" height="50" as="geometry" />
        </mxCell>
        <mxCell id="HJNS3MHEEu8FEa74WUdX-11" value="CRUD Menu &amp;amp; Jumlah Menu di Keranjang" style="ellipse;whiteSpace=wrap;html=1;" parent="1" vertex="1">
          <mxGeometry x="470" y="330" width="110" height="50" as="geometry" />
        </mxCell>
        <mxCell id="HJNS3MHEEu8FEa74WUdX-12" value="Memilih Metode Pembayaran" style="ellipse;whiteSpace=wrap;html=1;" parent="1" vertex="1">
          <mxGeometry x="470" y="400" width="100" height="50" as="geometry" />
        </mxCell>
        <mxCell id="HJNS3MHEEu8FEa74WUdX-13" value="Melihat Katalog Menu di Landing Page" style="ellipse;whiteSpace=wrap;html=1;" parent="1" vertex="1">
          <mxGeometry x="170" y="470" width="130" height="60" as="geometry" />
        </mxCell>
        <mxCell id="HJNS3MHEEu8FEa74WUdX-14" style="rounded=0;orthogonalLoop=1;jettySize=auto;html=1;exitX=0.5;exitY=0.5;exitDx=0;exitDy=0;exitPerimeter=0;entryX=0;entryY=0.5;entryDx=0;entryDy=0;" parent="1" source="DxVFcLozTvVZ30CHYZOx-24" target="HJNS3MHEEu8FEa74WUdX-13" edge="1">
          <mxGeometry relative="1" as="geometry">
            <mxPoint x="-5" y="408" as="sourcePoint" />
            <mxPoint x="180" y="140" as="targetPoint" />
          </mxGeometry>
        </mxCell>
        <mxCell id="HJNS3MHEEu8FEa74WUdX-15" value="" style="endArrow=classic;html=1;rounded=0;exitX=1;exitY=0.5;exitDx=0;exitDy=0;entryX=0;entryY=0.5;entryDx=0;entryDy=0;" parent="1" source="DxVFcLozTvVZ30CHYZOx-32" target="HJNS3MHEEu8FEa74WUdX-11" edge="1">
          <mxGeometry width="50" height="50" relative="1" as="geometry">
            <mxPoint x="300" y="340" as="sourcePoint" />
            <mxPoint x="340" y="305" as="targetPoint" />
          </mxGeometry>
        </mxCell>
        <mxCell id="HJNS3MHEEu8FEa74WUdX-16" value="" style="endArrow=classic;html=1;rounded=0;exitX=1;exitY=0.5;exitDx=0;exitDy=0;entryX=0;entryY=0.5;entryDx=0;entryDy=0;" parent="1" source="DxVFcLozTvVZ30CHYZOx-32" target="HJNS3MHEEu8FEa74WUdX-9" edge="1">
          <mxGeometry width="50" height="50" relative="1" as="geometry">
            <mxPoint x="310" y="350" as="sourcePoint" />
            <mxPoint x="350" y="315" as="targetPoint" />
          </mxGeometry>
        </mxCell>
        <mxCell id="HJNS3MHEEu8FEa74WUdX-17" value="" style="endArrow=classic;html=1;rounded=0;exitX=1;exitY=0.5;exitDx=0;exitDy=0;entryX=0;entryY=0.5;entryDx=0;entryDy=0;" parent="1" source="DxVFcLozTvVZ30CHYZOx-32" target="HJNS3MHEEu8FEa74WUdX-10" edge="1">
          <mxGeometry width="50" height="50" relative="1" as="geometry">
            <mxPoint x="320" y="360" as="sourcePoint" />
            <mxPoint x="360" y="325" as="targetPoint" />
          </mxGeometry>
        </mxCell>
        <mxCell id="HJNS3MHEEu8FEa74WUdX-18" value="Melakukan Transaksi" style="ellipse;whiteSpace=wrap;html=1;" parent="1" vertex="1">
          <mxGeometry x="470" y="460" width="100" height="50" as="geometry" />
        </mxCell>
        <mxCell id="HJNS3MHEEu8FEa74WUdX-19" value="" style="endArrow=classic;html=1;rounded=0;exitX=1;exitY=0.5;exitDx=0;exitDy=0;entryX=0;entryY=0.5;entryDx=0;entryDy=0;" parent="1" source="DxVFcLozTvVZ30CHYZOx-31" target="HJNS3MHEEu8FEa74WUdX-12" edge="1">
          <mxGeometry width="50" height="50" relative="1" as="geometry">
            <mxPoint x="440" y="300" as="sourcePoint" />
            <mxPoint x="500" y="370" as="targetPoint" />
          </mxGeometry>
        </mxCell>
        <mxCell id="HJNS3MHEEu8FEa74WUdX-20" value="" style="endArrow=classic;html=1;rounded=0;exitX=1;exitY=0.5;exitDx=0;exitDy=0;entryX=0;entryY=0.5;entryDx=0;entryDy=0;" parent="1" source="DxVFcLozTvVZ30CHYZOx-31" target="HJNS3MHEEu8FEa74WUdX-18" edge="1">
          <mxGeometry width="50" height="50" relative="1" as="geometry">
            <mxPoint x="440" y="396" as="sourcePoint" />
            <mxPoint x="490" y="446" as="targetPoint" />
          </mxGeometry>
        </mxCell>
      </root>
    </mxGraphModel>
  </diagram>
  <diagram name="Use Case" id="MyAilsJxBq6ED9uctgL9">
    <mxGraphModel dx="954" dy="639" grid="1" gridSize="10" guides="1" tooltips="1" connect="1" arrows="1" fold="1" page="1" pageScale="1" pageWidth="850" pageHeight="1100" math="0" shadow="0">
      <root>
        <mxCell id="0" />
        <mxCell id="1" parent="0" />
        <mxCell id="qosB656XT4Qs0609NldI-1" value="" style="rounded=0;whiteSpace=wrap;html=1;fillColor=none;" vertex="1" parent="1">
          <mxGeometry width="540" height="620" as="geometry" />
        </mxCell>
        <mxCell id="9ms4RAFpTQQVyTvCwZZd-2" value="" style="rounded=0;whiteSpace=wrap;html=1;fillColor=none;" parent="1" vertex="1">
          <mxGeometry x="20" y="20" width="500" height="580" as="geometry" />
        </mxCell>
        <mxCell id="S9fXlSO1X3pHWhgLCUdl-1" value="Admin" style="shape=umlActor;verticalLabelPosition=bottom;verticalAlign=top;html=1;outlineConnect=0;" parent="1" vertex="1">
          <mxGeometry x="40" y="320" width="30" height="60" as="geometry" />
        </mxCell>
        <mxCell id="S9fXlSO1X3pHWhgLCUdl-2" value="" style="endArrow=classic;html=1;rounded=0;entryX=0;entryY=0.5;entryDx=0;entryDy=0;exitX=0.5;exitY=0.5;exitDx=0;exitDy=0;exitPerimeter=0;" parent="1" source="S9fXlSO1X3pHWhgLCUdl-1" target="S9fXlSO1X3pHWhgLCUdl-34" edge="1">
          <mxGeometry width="50" height="50" relative="1" as="geometry">
            <mxPoint x="190" y="70" as="sourcePoint" />
            <mxPoint x="264" y="22.399999999999977" as="targetPoint" />
          </mxGeometry>
        </mxCell>
        <mxCell id="S9fXlSO1X3pHWhgLCUdl-5" value="Tambah buku" style="ellipse;whiteSpace=wrap;html=1;" parent="1" vertex="1">
          <mxGeometry x="400" y="40" width="100" height="50" as="geometry" />
        </mxCell>
        <mxCell id="S9fXlSO1X3pHWhgLCUdl-6" value="Edit buku" style="ellipse;whiteSpace=wrap;html=1;" parent="1" vertex="1">
          <mxGeometry x="400" y="110" width="100" height="50" as="geometry" />
        </mxCell>
        <mxCell id="S9fXlSO1X3pHWhgLCUdl-7" value="Hapus buku" style="ellipse;whiteSpace=wrap;html=1;" parent="1" vertex="1">
          <mxGeometry x="400" y="180" width="100" height="50" as="geometry" />
        </mxCell>
        <mxCell id="S9fXlSO1X3pHWhgLCUdl-8" value="" style="endArrow=classic;html=1;rounded=0;exitX=1;exitY=0.5;exitDx=0;exitDy=0;entryX=0;entryY=0.5;entryDx=0;entryDy=0;" parent="1" source="S9fXlSO1X3pHWhgLCUdl-34" target="S9fXlSO1X3pHWhgLCUdl-5" edge="1">
          <mxGeometry width="50" height="50" relative="1" as="geometry">
            <mxPoint x="350" y="155" as="sourcePoint" />
            <mxPoint x="450" y="310" as="targetPoint" />
          </mxGeometry>
        </mxCell>
        <mxCell id="S9fXlSO1X3pHWhgLCUdl-9" value="" style="endArrow=classic;html=1;rounded=0;exitX=1;exitY=0.5;exitDx=0;exitDy=0;entryX=0;entryY=0.5;entryDx=0;entryDy=0;" parent="1" source="S9fXlSO1X3pHWhgLCUdl-34" target="S9fXlSO1X3pHWhgLCUdl-6" edge="1">
          <mxGeometry width="50" height="50" relative="1" as="geometry">
            <mxPoint x="350" y="155" as="sourcePoint" />
            <mxPoint x="450" y="310" as="targetPoint" />
          </mxGeometry>
        </mxCell>
        <mxCell id="S9fXlSO1X3pHWhgLCUdl-10" value="" style="endArrow=classic;html=1;rounded=0;exitX=1;exitY=0.5;exitDx=0;exitDy=0;entryX=0;entryY=0.5;entryDx=0;entryDy=0;" parent="1" source="S9fXlSO1X3pHWhgLCUdl-34" target="S9fXlSO1X3pHWhgLCUdl-7" edge="1">
          <mxGeometry width="50" height="50" relative="1" as="geometry">
            <mxPoint x="350" y="155" as="sourcePoint" />
            <mxPoint x="450" y="310" as="targetPoint" />
          </mxGeometry>
        </mxCell>
        <mxCell id="S9fXlSO1X3pHWhgLCUdl-12" value="Cari buku" style="ellipse;whiteSpace=wrap;html=1;" parent="1" vertex="1">
          <mxGeometry x="400" y="250" width="100" height="50" as="geometry" />
        </mxCell>
        <mxCell id="S9fXlSO1X3pHWhgLCUdl-13" value="" style="endArrow=classic;html=1;rounded=0;exitX=1;exitY=0.5;exitDx=0;exitDy=0;entryX=0;entryY=0.5;entryDx=0;entryDy=0;" parent="1" source="S9fXlSO1X3pHWhgLCUdl-34" target="S9fXlSO1X3pHWhgLCUdl-12" edge="1">
          <mxGeometry width="50" height="50" relative="1" as="geometry">
            <mxPoint x="350" y="155" as="sourcePoint" />
            <mxPoint x="450" y="310" as="targetPoint" />
          </mxGeometry>
        </mxCell>
        <mxCell id="S9fXlSO1X3pHWhgLCUdl-32" value="Pelaporan" style="ellipse;whiteSpace=wrap;html=1;" parent="1" vertex="1">
          <mxGeometry x="240" y="465" width="120" height="60" as="geometry" />
        </mxCell>
        <mxCell id="S9fXlSO1X3pHWhgLCUdl-34" value="Manajemen Buku" style="ellipse;whiteSpace=wrap;html=1;" parent="1" vertex="1">
          <mxGeometry x="240" y="140" width="120" height="60" as="geometry" />
        </mxCell>
        <mxCell id="S9fXlSO1X3pHWhgLCUdl-35" value="Laporan pengembalian" style="ellipse;whiteSpace=wrap;html=1;" parent="1" vertex="1">
          <mxGeometry x="400" y="470" width="100" height="50" as="geometry" />
        </mxCell>
        <mxCell id="S9fXlSO1X3pHWhgLCUdl-36" value="Log Peminjaman" style="ellipse;whiteSpace=wrap;html=1;" parent="1" vertex="1">
          <mxGeometry x="400" y="535" width="100" height="50" as="geometry" />
        </mxCell>
        <mxCell id="S9fXlSO1X3pHWhgLCUdl-37" value="Laporan peminjaman" style="ellipse;whiteSpace=wrap;html=1;" parent="1" vertex="1">
          <mxGeometry x="400" y="400" width="100" height="50" as="geometry" />
        </mxCell>
        <mxCell id="S9fXlSO1X3pHWhgLCUdl-38" value="" style="endArrow=classic;html=1;rounded=0;exitX=1;exitY=0.5;exitDx=0;exitDy=0;entryX=0;entryY=0.5;entryDx=0;entryDy=0;" parent="1" source="S9fXlSO1X3pHWhgLCUdl-32" target="S9fXlSO1X3pHWhgLCUdl-37" edge="1">
          <mxGeometry width="50" height="50" relative="1" as="geometry">
            <mxPoint x="340" y="470" as="sourcePoint" />
            <mxPoint x="390" y="420" as="targetPoint" />
          </mxGeometry>
        </mxCell>
        <mxCell id="S9fXlSO1X3pHWhgLCUdl-39" value="" style="endArrow=classic;html=1;rounded=0;exitX=1;exitY=0.5;exitDx=0;exitDy=0;entryX=0;entryY=0.5;entryDx=0;entryDy=0;" parent="1" source="S9fXlSO1X3pHWhgLCUdl-32" target="S9fXlSO1X3pHWhgLCUdl-35" edge="1">
          <mxGeometry width="50" height="50" relative="1" as="geometry">
            <mxPoint x="340" y="470" as="sourcePoint" />
            <mxPoint x="390" y="420" as="targetPoint" />
          </mxGeometry>
        </mxCell>
        <mxCell id="S9fXlSO1X3pHWhgLCUdl-40" value="" style="endArrow=classic;html=1;rounded=0;exitX=1;exitY=0.5;exitDx=0;exitDy=0;entryX=0;entryY=0.5;entryDx=0;entryDy=0;" parent="1" source="S9fXlSO1X3pHWhgLCUdl-32" target="S9fXlSO1X3pHWhgLCUdl-36" edge="1">
          <mxGeometry width="50" height="50" relative="1" as="geometry">
            <mxPoint x="370" y="500" as="sourcePoint" />
            <mxPoint x="390" y="420" as="targetPoint" />
          </mxGeometry>
        </mxCell>
        <mxCell id="S9fXlSO1X3pHWhgLCUdl-41" value="" style="endArrow=classic;html=1;rounded=0;exitX=0.5;exitY=0.5;exitDx=0;exitDy=0;exitPerimeter=0;entryX=0;entryY=0.5;entryDx=0;entryDy=0;" parent="1" source="S9fXlSO1X3pHWhgLCUdl-1" target="S9fXlSO1X3pHWhgLCUdl-32" edge="1">
          <mxGeometry width="50" height="50" relative="1" as="geometry">
            <mxPoint x="360" y="470" as="sourcePoint" />
            <mxPoint x="410" y="420" as="targetPoint" />
          </mxGeometry>
        </mxCell>
        <mxCell id="BTgNkJI0viRhHOQHtaBo-6" value="Manajemen User" style="ellipse;whiteSpace=wrap;html=1;" parent="1" vertex="1">
          <mxGeometry x="240" y="320" width="120" height="60" as="geometry" />
        </mxCell>
        <mxCell id="BTgNkJI0viRhHOQHtaBo-12" value="" style="endArrow=classic;html=1;rounded=0;exitX=1;exitY=0.5;exitDx=0;exitDy=0;entryX=0;entryY=0.5;entryDx=0;entryDy=0;" parent="1" source="BTgNkJI0viRhHOQHtaBo-6" target="BTgNkJI0viRhHOQHtaBo-13" edge="1">
          <mxGeometry width="50" height="50" relative="1" as="geometry">
            <mxPoint x="490" y="380" as="sourcePoint" />
            <mxPoint x="400.0000000000007" y="285" as="targetPoint" />
          </mxGeometry>
        </mxCell>
        <mxCell id="BTgNkJI0viRhHOQHtaBo-13" value="Cek informasi user" style="ellipse;whiteSpace=wrap;html=1;" parent="1" vertex="1">
          <mxGeometry x="400" y="325" width="100" height="50" as="geometry" />
        </mxCell>
        <mxCell id="BTgNkJI0viRhHOQHtaBo-16" value="" style="endArrow=classic;html=1;rounded=0;exitX=0.5;exitY=0.5;exitDx=0;exitDy=0;exitPerimeter=0;entryX=0;entryY=0.5;entryDx=0;entryDy=0;" parent="1" source="S9fXlSO1X3pHWhgLCUdl-1" target="BTgNkJI0viRhHOQHtaBo-6" edge="1">
          <mxGeometry width="50" height="50" relative="1" as="geometry">
            <mxPoint x="30" y="532.5" as="sourcePoint" />
            <mxPoint x="355" y="417.5" as="targetPoint" />
          </mxGeometry>
        </mxCell>
        <mxCell id="qosB656XT4Qs0609NldI-2" value="&lt;b style=&quot;font-size: 16px;&quot;&gt;Use Case Admin&lt;/b&gt;" style="text;html=1;align=center;verticalAlign=middle;whiteSpace=wrap;rounded=0;fontSize=16;" vertex="1" parent="1">
          <mxGeometry x="30" y="30" width="130" height="30" as="geometry" />
        </mxCell>
      </root>
    </mxGraphModel>
  </diagram>
  <diagram name="ERD" id="RpBFOSDT1PGz-7NcxXcT">
    <mxGraphModel grid="1" page="1" gridSize="10" guides="1" tooltips="1" connect="1" arrows="1" fold="1" pageScale="1" pageWidth="850" pageHeight="1100" math="0" shadow="0">
      <root>
        <mxCell id="0" />
        <mxCell id="1" parent="0" />
        <mxCell id="Szc9Y7NVKMdr6bsTbtvy-1" value="Buku" style="ellipse;whiteSpace=wrap;html=1;" vertex="1" parent="1">
          <mxGeometry x="215" y="120" width="120" height="80" as="geometry" />
        </mxCell>
        <mxCell id="Szc9Y7NVKMdr6bsTbtvy-2" value="User" style="ellipse;whiteSpace=wrap;html=1;" vertex="1" parent="1">
          <mxGeometry x="590" y="120" width="120" height="80" as="geometry" />
        </mxCell>
        <mxCell id="Szc9Y7NVKMdr6bsTbtvy-3" value="ID Buku" style="ellipse;whiteSpace=wrap;html=1;" vertex="1" parent="1">
          <mxGeometry x="90" y="10" width="100" height="80" as="geometry" />
        </mxCell>
        <mxCell id="Szc9Y7NVKMdr6bsTbtvy-4" value="Judul" style="ellipse;whiteSpace=wrap;html=1;" vertex="1" parent="1">
          <mxGeometry x="225" y="10" width="100" height="80" as="geometry" />
        </mxCell>
        <mxCell id="Szc9Y7NVKMdr6bsTbtvy-5" value="Penulis" style="ellipse;whiteSpace=wrap;html=1;" vertex="1" parent="1">
          <mxGeometry x="360" y="10" width="100" height="80" as="geometry" />
        </mxCell>
        <mxCell id="Szc9Y7NVKMdr6bsTbtvy-6" value="Penerbit" style="ellipse;whiteSpace=wrap;html=1;" vertex="1" parent="1">
          <mxGeometry x="225" y="230" width="100" height="80" as="geometry" />
        </mxCell>
        <mxCell id="Szc9Y7NVKMdr6bsTbtvy-7" value="Tahun terbit" style="ellipse;whiteSpace=wrap;html=1;" vertex="1" parent="1">
          <mxGeometry x="60" y="120" width="100" height="80" as="geometry" />
        </mxCell>
        <mxCell id="Szc9Y7NVKMdr6bsTbtvy-8" value="Status" style="ellipse;whiteSpace=wrap;html=1;" vertex="1" parent="1">
          <mxGeometry x="90" y="220" width="100" height="80" as="geometry" />
        </mxCell>
        <mxCell id="Szc9Y7NVKMdr6bsTbtvy-9" value="" style="endArrow=none;html=1;rounded=0;entryX=0.5;entryY=1;entryDx=0;entryDy=0;exitX=0.5;exitY=0;exitDx=0;exitDy=0;" edge="1" parent="1" source="Szc9Y7NVKMdr6bsTbtvy-6" target="Szc9Y7NVKMdr6bsTbtvy-1">
          <mxGeometry width="50" height="50" relative="1" as="geometry">
            <mxPoint x="400" y="310" as="sourcePoint" />
            <mxPoint x="450" y="260" as="targetPoint" />
          </mxGeometry>
        </mxCell>
        <mxCell id="Szc9Y7NVKMdr6bsTbtvy-10" value="" style="endArrow=none;html=1;rounded=0;exitX=1;exitY=0;exitDx=0;exitDy=0;entryX=0;entryY=1;entryDx=0;entryDy=0;" edge="1" parent="1" source="Szc9Y7NVKMdr6bsTbtvy-8" target="Szc9Y7NVKMdr6bsTbtvy-1">
          <mxGeometry width="50" height="50" relative="1" as="geometry">
            <mxPoint x="400" y="310" as="sourcePoint" />
            <mxPoint x="450" y="260" as="targetPoint" />
          </mxGeometry>
        </mxCell>
        <mxCell id="Szc9Y7NVKMdr6bsTbtvy-11" value="" style="endArrow=none;html=1;rounded=0;exitX=1;exitY=0.5;exitDx=0;exitDy=0;entryX=0;entryY=0.5;entryDx=0;entryDy=0;" edge="1" parent="1" source="Szc9Y7NVKMdr6bsTbtvy-7" target="Szc9Y7NVKMdr6bsTbtvy-1">
          <mxGeometry width="50" height="50" relative="1" as="geometry">
            <mxPoint x="400" y="310" as="sourcePoint" />
            <mxPoint x="450" y="260" as="targetPoint" />
          </mxGeometry>
        </mxCell>
        <mxCell id="Szc9Y7NVKMdr6bsTbtvy-12" value="" style="endArrow=none;html=1;rounded=0;exitX=1;exitY=1;exitDx=0;exitDy=0;entryX=0;entryY=0;entryDx=0;entryDy=0;" edge="1" parent="1" source="Szc9Y7NVKMdr6bsTbtvy-3" target="Szc9Y7NVKMdr6bsTbtvy-1">
          <mxGeometry width="50" height="50" relative="1" as="geometry">
            <mxPoint x="400" y="310" as="sourcePoint" />
            <mxPoint x="450" y="260" as="targetPoint" />
          </mxGeometry>
        </mxCell>
        <mxCell id="Szc9Y7NVKMdr6bsTbtvy-13" value="" style="endArrow=none;html=1;rounded=0;exitX=0;exitY=1;exitDx=0;exitDy=0;entryX=1;entryY=0;entryDx=0;entryDy=0;" edge="1" parent="1" source="Szc9Y7NVKMdr6bsTbtvy-5" target="Szc9Y7NVKMdr6bsTbtvy-1">
          <mxGeometry width="50" height="50" relative="1" as="geometry">
            <mxPoint x="420" y="208.39999389648438" as="sourcePoint" />
            <mxPoint x="450" y="260" as="targetPoint" />
          </mxGeometry>
        </mxCell>
        <mxCell id="Szc9Y7NVKMdr6bsTbtvy-14" value="" style="endArrow=none;html=1;rounded=0;exitX=0.5;exitY=1;exitDx=0;exitDy=0;entryX=0.5;entryY=0;entryDx=0;entryDy=0;" edge="1" parent="1" source="Szc9Y7NVKMdr6bsTbtvy-4" target="Szc9Y7NVKMdr6bsTbtvy-1">
          <mxGeometry width="50" height="50" relative="1" as="geometry">
            <mxPoint x="400" y="190" as="sourcePoint" />
            <mxPoint x="450" y="140" as="targetPoint" />
          </mxGeometry>
        </mxCell>
        <mxCell id="Szc9Y7NVKMdr6bsTbtvy-15" value="ID User" style="ellipse;whiteSpace=wrap;html=1;" vertex="1" parent="1">
          <mxGeometry x="520" y="10" width="100" height="80" as="geometry" />
        </mxCell>
        <mxCell id="Szc9Y7NVKMdr6bsTbtvy-16" value="Nama" style="ellipse;whiteSpace=wrap;html=1;" vertex="1" parent="1">
          <mxGeometry x="680" y="10" width="100" height="80" as="geometry" />
        </mxCell>
        <mxCell id="Szc9Y7NVKMdr6bsTbtvy-17" value="Email" style="ellipse;whiteSpace=wrap;html=1;" vertex="1" parent="1">
          <mxGeometry x="520" y="230" width="100" height="80" as="geometry" />
        </mxCell>
        <mxCell id="Szc9Y7NVKMdr6bsTbtvy-18" value="Alamat" style="ellipse;whiteSpace=wrap;html=1;" vertex="1" parent="1">
          <mxGeometry x="680" y="230" width="100" height="80" as="geometry" />
        </mxCell>
        <mxCell id="Szc9Y7NVKMdr6bsTbtvy-19" value="" style="endArrow=none;html=1;rounded=0;entryX=0.5;entryY=1;entryDx=0;entryDy=0;exitX=0;exitY=0;exitDx=0;exitDy=0;" edge="1" parent="1" source="Szc9Y7NVKMdr6bsTbtvy-2" target="Szc9Y7NVKMdr6bsTbtvy-15">
          <mxGeometry width="50" height="50" relative="1" as="geometry">
            <mxPoint x="400" y="190" as="sourcePoint" />
            <mxPoint x="450" y="140" as="targetPoint" />
          </mxGeometry>
        </mxCell>
        <mxCell id="Szc9Y7NVKMdr6bsTbtvy-20" value="" style="endArrow=none;html=1;rounded=0;entryX=0.5;entryY=0;entryDx=0;entryDy=0;exitX=0;exitY=1;exitDx=0;exitDy=0;" edge="1" parent="1" source="Szc9Y7NVKMdr6bsTbtvy-2" target="Szc9Y7NVKMdr6bsTbtvy-17">
          <mxGeometry width="50" height="50" relative="1" as="geometry">
            <mxPoint x="400" y="190" as="sourcePoint" />
            <mxPoint x="450" y="140" as="targetPoint" />
          </mxGeometry>
        </mxCell>
        <mxCell id="Szc9Y7NVKMdr6bsTbtvy-21" value="" style="endArrow=none;html=1;rounded=0;exitX=0.5;exitY=0;exitDx=0;exitDy=0;entryX=1;entryY=1;entryDx=0;entryDy=0;" edge="1" parent="1" source="Szc9Y7NVKMdr6bsTbtvy-18" target="Szc9Y7NVKMdr6bsTbtvy-2">
          <mxGeometry width="50" height="50" relative="1" as="geometry">
            <mxPoint x="400" y="190" as="sourcePoint" />
            <mxPoint x="450" y="140" as="targetPoint" />
          </mxGeometry>
        </mxCell>
        <mxCell id="Szc9Y7NVKMdr6bsTbtvy-22" value="" style="endArrow=none;html=1;rounded=0;entryX=0.5;entryY=1;entryDx=0;entryDy=0;exitX=1;exitY=0;exitDx=0;exitDy=0;" edge="1" parent="1" source="Szc9Y7NVKMdr6bsTbtvy-2" target="Szc9Y7NVKMdr6bsTbtvy-16">
          <mxGeometry width="50" height="50" relative="1" as="geometry">
            <mxPoint x="470" y="170" as="sourcePoint" />
            <mxPoint x="520" y="120" as="targetPoint" />
          </mxGeometry>
        </mxCell>
        <mxCell id="Szc9Y7NVKMdr6bsTbtvy-23" value="Peminjaman" style="ellipse;whiteSpace=wrap;html=1;" vertex="1" parent="1">
          <mxGeometry x="920" y="120" width="120" height="80" as="geometry" />
        </mxCell>
        <mxCell id="Szc9Y7NVKMdr6bsTbtvy-24" value="ID Peminjaman" style="ellipse;whiteSpace=wrap;html=1;" vertex="1" parent="1">
          <mxGeometry x="850" y="10" width="100" height="80" as="geometry" />
        </mxCell>
        <mxCell id="Szc9Y7NVKMdr6bsTbtvy-25" value="ID Buku" style="ellipse;whiteSpace=wrap;html=1;" vertex="1" parent="1">
          <mxGeometry x="1010" y="10" width="100" height="80" as="geometry" />
        </mxCell>
        <mxCell id="Szc9Y7NVKMdr6bsTbtvy-26" value="ID User" style="ellipse;whiteSpace=wrap;html=1;" vertex="1" parent="1">
          <mxGeometry x="850" y="230" width="100" height="80" as="geometry" />
        </mxCell>
        <mxCell id="Szc9Y7NVKMdr6bsTbtvy-27" value="Tanggal Pengembalian" style="ellipse;whiteSpace=wrap;html=1;" vertex="1" parent="1">
          <mxGeometry x="1100" y="230" width="100" height="80" as="geometry" />
        </mxCell>
        <mxCell id="Szc9Y7NVKMdr6bsTbtvy-28" value="" style="endArrow=none;html=1;rounded=0;entryX=0.5;entryY=1;entryDx=0;entryDy=0;exitX=0;exitY=0;exitDx=0;exitDy=0;" edge="1" parent="1" source="Szc9Y7NVKMdr6bsTbtvy-23" target="Szc9Y7NVKMdr6bsTbtvy-24">
          <mxGeometry width="50" height="50" relative="1" as="geometry">
            <mxPoint x="730" y="190" as="sourcePoint" />
            <mxPoint x="780" y="140" as="targetPoint" />
          </mxGeometry>
        </mxCell>
        <mxCell id="Szc9Y7NVKMdr6bsTbtvy-29" value="" style="endArrow=none;html=1;rounded=0;entryX=0.5;entryY=0;entryDx=0;entryDy=0;exitX=0;exitY=1;exitDx=0;exitDy=0;" edge="1" parent="1" source="Szc9Y7NVKMdr6bsTbtvy-23" target="Szc9Y7NVKMdr6bsTbtvy-26">
          <mxGeometry width="50" height="50" relative="1" as="geometry">
            <mxPoint x="730" y="190" as="sourcePoint" />
            <mxPoint x="780" y="140" as="targetPoint" />
          </mxGeometry>
        </mxCell>
        <mxCell id="Szc9Y7NVKMdr6bsTbtvy-30" value="" style="endArrow=none;html=1;rounded=0;exitX=0.5;exitY=0;exitDx=0;exitDy=0;entryX=1;entryY=1;entryDx=0;entryDy=0;" edge="1" parent="1" source="Szc9Y7NVKMdr6bsTbtvy-41" target="Szc9Y7NVKMdr6bsTbtvy-23">
          <mxGeometry width="50" height="50" relative="1" as="geometry">
            <mxPoint x="730" y="190" as="sourcePoint" />
            <mxPoint x="780" y="140" as="targetPoint" />
          </mxGeometry>
        </mxCell>
        <mxCell id="Szc9Y7NVKMdr6bsTbtvy-31" value="" style="endArrow=none;html=1;rounded=0;entryX=0.5;entryY=1;entryDx=0;entryDy=0;exitX=1;exitY=0;exitDx=0;exitDy=0;" edge="1" parent="1" source="Szc9Y7NVKMdr6bsTbtvy-23" target="Szc9Y7NVKMdr6bsTbtvy-25">
          <mxGeometry width="50" height="50" relative="1" as="geometry">
            <mxPoint x="800" y="170" as="sourcePoint" />
            <mxPoint x="850" y="120" as="targetPoint" />
          </mxGeometry>
        </mxCell>
        <mxCell id="Szc9Y7NVKMdr6bsTbtvy-41" value="Tanggal Peminjaman" style="ellipse;whiteSpace=wrap;html=1;" vertex="1" parent="1">
          <mxGeometry x="973" y="230" width="100" height="80" as="geometry" />
        </mxCell>
        <mxCell id="Szc9Y7NVKMdr6bsTbtvy-42" value="" style="endArrow=none;html=1;rounded=0;entryX=1;entryY=0.5;entryDx=0;entryDy=0;exitX=0;exitY=0;exitDx=0;exitDy=0;" edge="1" parent="1" source="Szc9Y7NVKMdr6bsTbtvy-27" target="Szc9Y7NVKMdr6bsTbtvy-23">
          <mxGeometry width="50" height="50" relative="1" as="geometry">
            <mxPoint x="1100" y="260" as="sourcePoint" />
            <mxPoint x="1150" y="210" as="targetPoint" />
          </mxGeometry>
        </mxCell>
      </root>
    </mxGraphModel>
  </diagram>
</mxfile>
